{
	"asset":{
		"generator":"Khronos glTF Blender I/O v4.0.44",
		"version":"2.0"
	},
	"extensionsUsed":[
		"KHR_materials_transmission",
		"KHR_materials_ior"
	],
	"scene":0,
	"scenes":[
		{
			"name":"Scene",
			"nodes":[
				0
			]
		}
	],
	"nodes":[
		{
			"mesh":0,
			"name":"Text",
			"rotation":[
				0.7071068286895752,
				0,
				0,
				0.7071068286895752
			],
			"scale":[
				1.236541986465454,
				1,
				1
			]
		}
	],
	"materials":[
		{
			"doubleSided":true,
			"extensions":{
				"KHR_materials_transmission":{
					"transmissionFactor":0.6590908765792847
				},
				"KHR_materials_ior":{
					"ior":1.4500000476837158
				}
			},
			"name":"Material.010",
			"pbrMetallicRoughness":{
				"baseColorFactor":[
					1,
					1,
					1,
					0.9136363863945007
				],
				"baseColorTexture":{
					"index":0
				},
				"metallicFactor":0,
				"roughnessFactor":0.5
			}
		}
	],
	"meshes":[
		{
			"name":"Text",
			"primitives":[
				{
					"attributes":{
						"POSITION":0,
						"NORMAL":1,
						"TEXCOORD_0":2
					},
					"indices":3,
					"material":0
				}
			]
		}
	],
	"textures":[
		{
			"sampler":0,
			"source":0
		}
	],
	"images":[
		{
			"mimeType":"image/png",
			"name":"1",
			"uri":"1.png"
		}
	],
	"accessors":[
		{
			"bufferView":0,
			"componentType":5126,
			"count":11662,
			"max":[
				1.7592289447784424,
				0.09999999403953552,
				0.1013125479221344
			],
			"min":[
				-1.758408546447754,
				-0.09999999403953552,
				-0.6767842769622803
			],
			"type":"VEC3"
		},
		{
			"bufferView":1,
			"componentType":5126,
			"count":11662,
			"type":"VEC3"
		},
		{
			"bufferView":2,
			"componentType":5126,
			"count":11662,
			"type":"VEC2"
		},
		{
			"bufferView":3,
			"componentType":5123,
			"count":34776,
			"type":"SCALAR"
		}
	],
	"bufferViews":[
		{
			"buffer":0,
			"byteLength":139944,
			"byteOffset":0,
			"target":34962
		},
		{
			"buffer":0,
			"byteLength":139944,
			"byteOffset":139944,
			"target":34962
		},
		{
			"buffer":0,
			"byteLength":93296,
			"byteOffset":279888,
			"target":34962
		},
		{
			"buffer":0,
			"byteLength":69552,
			"byteOffset":373184,
			"target":34963
		}
	],
	"samplers":[
		{
			"magFilter":9729,
			"minFilter":9987
		}
	],
	"buffers":[
		{
			"byteLength":442736,
			"uri":"holyholi1.bin"
		}
	]
}
